<svg width="486" height="568" viewBox="0 0 486 568" fill="none" xmlns="http://www.w3.org/2000/svg">
<path d="M470.147 182.084C390.531 -60.6709 96.3019 -60.7161 16.6855 182.077C-52.7848 382.636 105.804 605.554 286.689 562.642C289.584 561.956 292.188 560.118 294.058 557.439C295.928 554.759 296.949 551.405 296.948 547.944C296.947 544.483 295.924 541.129 294.052 538.452C292.18 535.774 289.575 533.938 286.68 533.255C285.892 531.25 284.737 529.474 283.297 528.053C281.856 526.632 280.166 525.601 278.346 525.034C276.526 524.466 274.621 524.377 272.768 524.771C270.916 525.165 269.16 526.034 267.626 527.315C218.298 565.169 179.442 486.621 161.924 392.276L237.453 392.274C240.807 392.219 244.009 390.618 246.365 387.819C248.72 385.02 250.041 381.247 250.041 377.316C250.041 373.385 248.72 369.612 246.364 366.813C244.008 364.014 240.807 362.414 237.452 362.358H157.572C151.188 309.773 151.189 256.395 157.575 203.81H329.253C332.26 228.319 333.837 253.04 333.975 277.801C333.997 281.768 335.363 285.563 337.773 288.35C340.183 291.136 343.44 292.688 346.826 292.662C350.212 292.636 353.451 291.035 355.83 288.212C358.208 285.388 359.532 281.573 359.51 277.606C359.375 252.921 357.889 228.272 355.062 203.81H449.502C462.368 249.411 463.915 298.355 453.963 344.946C453.146 348.788 453.663 352.853 455.4 356.249C457.138 359.645 459.954 362.095 463.231 363.062C466.508 364.029 469.979 363.433 472.882 361.407C475.785 359.38 477.884 356.087 478.717 352.25C483.566 329.636 486.012 306.406 485.999 283.089C486.09 248.562 480.715 214.314 470.147 182.084ZM439.349 173.894H350.856C341.341 116.182 324.856 69.6634 304.026 39.1801C333.385 49.2601 360.606 66.4633 383.919 89.6721C407.233 112.881 426.119 141.576 439.349 173.894ZM243.412 28.8036C277.104 28.8036 309.681 87.6123 324.897 173.894H161.925C177.139 87.619 209.719 28.8036 243.412 28.8036ZM182.797 39.1801C161.964 69.6663 145.481 116.187 135.97 173.893H47.4753C60.7054 141.576 79.5906 112.881 102.904 89.6724C126.218 66.4636 153.438 49.2604 182.797 39.1801ZM182.804 526.999C153.444 516.917 126.222 499.712 102.907 476.502C79.592 453.291 60.7058 424.594 47.4752 392.274H135.969C145.488 449.989 161.973 496.512 182.804 526.999ZM131.768 362.358H37.3223C22.7808 310.882 22.7794 255.287 37.3185 203.81H131.77C125.738 256.423 125.737 309.745 131.768 362.358ZM428.851 488.409C472.867 422.161 429.88 320.725 357.671 321.974C334.091 322.006 311.484 332.994 294.811 352.528C278.137 372.062 268.758 398.547 268.732 426.173C267.7 510.793 354.222 561.118 410.797 509.558L456.332 562.908C458.739 565.642 461.967 567.157 465.319 567.127C468.671 567.096 471.878 565.523 474.249 562.746C476.619 559.969 477.962 556.211 477.988 552.284C478.013 548.356 476.72 544.575 474.386 541.756L428.851 488.409ZM294.267 426.173C294.286 406.478 300.973 387.597 312.859 373.671C324.746 359.745 340.863 351.912 357.673 351.889C413.559 351.023 442.232 433.765 402.489 478.688C364.147 525.234 293.512 491.628 294.267 426.173Z" fill="url(#paint0_linear_363_426)"/>
<path d="M470.147 182.084C390.531 -60.6709 96.3019 -60.7161 16.6855 182.077C-52.7848 382.636 105.804 605.554 286.689 562.642C289.584 561.956 292.188 560.118 294.058 557.439C295.928 554.759 296.949 551.405 296.948 547.944C296.947 544.483 295.924 541.129 294.052 538.452C292.18 535.774 289.575 533.938 286.68 533.255C285.892 531.25 284.737 529.474 283.297 528.053C281.856 526.632 280.166 525.601 278.346 525.034C276.526 524.466 274.621 524.377 272.768 524.771C270.916 525.165 269.16 526.034 267.626 527.315C218.298 565.169 179.442 486.621 161.924 392.276L237.453 392.274C240.807 392.219 244.009 390.618 246.365 387.819C248.72 385.02 250.041 381.247 250.041 377.316C250.041 373.385 248.72 369.612 246.364 366.813C244.008 364.014 240.807 362.414 237.452 362.358H157.572C151.188 309.773 151.189 256.395 157.575 203.81H329.253C332.26 228.319 333.837 253.04 333.975 277.801C333.997 281.768 335.363 285.563 337.773 288.35C340.183 291.136 343.44 292.688 346.826 292.662C350.212 292.636 353.451 291.035 355.83 288.212C358.208 285.388 359.532 281.573 359.51 277.606C359.375 252.921 357.889 228.272 355.062 203.81H449.502C462.368 249.411 463.915 298.355 453.963 344.946C453.146 348.788 453.663 352.853 455.4 356.249C457.138 359.645 459.954 362.095 463.231 363.062C466.508 364.029 469.979 363.433 472.882 361.407C475.785 359.38 477.884 356.087 478.717 352.25C483.566 329.636 486.012 306.406 485.999 283.089C486.09 248.562 480.715 214.314 470.147 182.084ZM439.349 173.894H350.856C341.341 116.182 324.856 69.6634 304.026 39.1801C333.385 49.2601 360.606 66.4633 383.919 89.6721C407.233 112.881 426.119 141.576 439.349 173.894ZM243.412 28.8036C277.104 28.8036 309.681 87.6123 324.897 173.894H161.925C177.139 87.619 209.719 28.8036 243.412 28.8036ZM182.797 39.1801C161.964 69.6663 145.481 116.187 135.97 173.893H47.4753C60.7054 141.576 79.5906 112.881 102.904 89.6724C126.218 66.4636 153.438 49.2604 182.797 39.1801ZM182.804 526.999C153.444 516.917 126.222 499.712 102.907 476.502C79.592 453.291 60.7058 424.594 47.4752 392.274H135.969C145.488 449.989 161.973 496.512 182.804 526.999ZM131.768 362.358H37.3223C22.7808 310.882 22.7794 255.287 37.3185 203.81H131.77C125.738 256.423 125.737 309.745 131.768 362.358ZM428.851 488.409C472.867 422.161 429.88 320.725 357.671 321.974C334.091 322.006 311.484 332.994 294.811 352.528C278.137 372.062 268.758 398.547 268.732 426.173C267.7 510.793 354.222 561.118 410.797 509.558L456.332 562.908C458.739 565.642 461.967 567.157 465.319 567.127C468.671 567.096 471.878 565.523 474.249 562.746C476.619 559.969 477.962 556.211 477.988 552.284C478.013 548.356 476.72 544.575 474.386 541.756L428.851 488.409ZM294.267 426.173C294.286 406.478 300.973 387.597 312.859 373.671C324.746 359.745 340.863 351.912 357.673 351.889C413.559 351.023 442.232 433.765 402.489 478.688C364.147 525.234 293.512 491.628 294.267 426.173Z" fill="url(#paint1_linear_363_426)"/>
<defs>
<linearGradient id="paint0_linear_363_426" x1="-0.000124212" y1="284.002" x2="485.999" y2="284.002" gradientUnits="userSpaceOnUse">
<stop stop-color="#9D3ADF"/>
<stop offset="0.20605" stop-color="#8542D8"/>
<stop offset="0.63851" stop-color="#4857C6"/>
<stop offset="1" stop-color="#106AB6"/>
</linearGradient>
<linearGradient id="paint1_linear_363_426" x1="-0.000124212" y1="284.002" x2="485.999" y2="284.002" gradientUnits="userSpaceOnUse">
<stop stop-color="#9D3ADF"/>
<stop offset="0.20605" stop-color="#8542D8"/>
<stop offset="0.63851" stop-color="#4857C6"/>
<stop offset="1" stop-color="#106AB6"/>
</linearGradient>
</defs>
</svg>
