<svg width="486" height="568" viewBox="0 0 486 568" fill="none" xmlns="http://www.w3.org/2000/svg">
<path d="M176.79 28.2873C183.826 28.2873 189.528 34.988 189.528 43.2552C189.528 51.5223 183.825 58.2221 176.79 58.2221H63.6899C42.5927 58.2515 25.5014 78.3352 25.4765 103.125V493.162C25.5015 517.946 42.5927 538.036 63.6899 538.065H421.106C442.204 538.036 459.296 517.946 459.321 493.162V360.262C459.321 351.995 465.023 345.294 472.059 345.294C479.094 345.294 484.797 352 484.797 360.268V493.162C484.757 534.475 456.265 567.953 421.106 568H63.6899C28.5311 567.953 0.0398843 534.475 0 493.162V103.125C0.0398484 61.8125 28.5311 28.3343 63.6899 28.2873H176.79Z" fill="black"/>
<path d="M176.79 28.2873C183.826 28.2873 189.528 34.988 189.528 43.2552C189.528 51.5223 183.825 58.2221 176.79 58.2221H63.6899C42.5927 58.2515 25.5014 78.3352 25.4765 103.125V493.162C25.5015 517.946 42.5927 538.036 63.6899 538.065H421.106C442.204 538.036 459.296 517.946 459.321 493.162V360.262C459.321 351.995 465.023 345.294 472.059 345.294C479.094 345.294 484.797 352 484.797 360.268V493.162C484.757 534.475 456.265 567.953 421.106 568H63.6899C28.5311 567.953 0.0398843 534.475 0 493.162V103.125C0.0398484 61.8125 28.5311 28.3343 63.6899 28.2873H176.79Z" fill="url(#paint0_linear_363_430)"/>
<path d="M235.121 351.1L168.834 372.674L187.195 294.785L235.121 351.1Z" fill="black"/>
<path d="M235.121 351.1L168.834 372.674L187.195 294.785L235.121 351.1Z" fill="url(#paint1_linear_363_430)"/>
<path d="M445.155 118.467L259.165 337.015L199.181 266.534L385.171 47.9847L445.155 118.467Z" fill="black"/>
<path d="M445.155 118.467L259.165 337.015L199.181 266.534L385.171 47.9847L445.155 118.467Z" fill="url(#paint2_linear_363_430)"/>
<path d="M416.703 10.9404C429.147 -3.64684 449.294 -3.64679 461.738 10.9404L476.685 28.5043C489.105 43.1268 489.105 66.7991 476.685 81.4217L463.177 97.2958L403.193 26.8146L416.703 10.9404Z" fill="black"/>
<path d="M416.703 10.9404C429.147 -3.64684 449.294 -3.64679 461.738 10.9404L476.685 28.5043C489.105 43.1268 489.105 66.7991 476.685 81.4217L463.177 97.2958L403.193 26.8146L416.703 10.9404Z" fill="url(#paint3_linear_363_430)"/>
<defs>
<linearGradient id="paint0_linear_363_430" x1="-0.000124212" y1="284.002" x2="485.999" y2="284.002" gradientUnits="userSpaceOnUse">
<stop stop-color="#9D3ADF"/>
<stop offset="0.20605" stop-color="#8542D8"/>
<stop offset="0.63851" stop-color="#4857C6"/>
<stop offset="1" stop-color="#106AB6"/>
</linearGradient>
<linearGradient id="paint1_linear_363_430" x1="-0.000124212" y1="284.002" x2="485.999" y2="284.002" gradientUnits="userSpaceOnUse">
<stop stop-color="#9D3ADF"/>
<stop offset="0.20605" stop-color="#8542D8"/>
<stop offset="0.63851" stop-color="#4857C6"/>
<stop offset="1" stop-color="#106AB6"/>
</linearGradient>
<linearGradient id="paint2_linear_363_430" x1="-0.000124212" y1="284.002" x2="485.999" y2="284.002" gradientUnits="userSpaceOnUse">
<stop stop-color="#9D3ADF"/>
<stop offset="0.20605" stop-color="#8542D8"/>
<stop offset="0.63851" stop-color="#4857C6"/>
<stop offset="1" stop-color="#106AB6"/>
</linearGradient>
<linearGradient id="paint3_linear_363_430" x1="-0.000124212" y1="284.002" x2="485.999" y2="284.002" gradientUnits="userSpaceOnUse">
<stop stop-color="#9D3ADF"/>
<stop offset="0.20605" stop-color="#8542D8"/>
<stop offset="0.63851" stop-color="#4857C6"/>
<stop offset="1" stop-color="#106AB6"/>
</linearGradient>
</defs>
</svg>
