<svg width="13" height="25" viewBox="0 0 13 25" fill="none" xmlns="http://www.w3.org/2000/svg">
<path d="M3.6 14.1114C3.51 14.1114 1.53 14.1114 0.63 14.1114C0.15 14.1114 0 13.9237 0 13.4543C0 12.2028 0 10.9199 0 9.66833C0 9.16771 0.18 9.01126 0.63 9.01126H3.6C3.6 8.9174 3.6 7.10263 3.6 6.25782C3.6 5.00626 3.81 3.81727 4.41 2.72215C5.04 1.59574 5.94 0.844806 7.08 0.406758C7.83 0.125156 8.58 0 9.39 0H12.33C12.75 0 12.93 0.187735 12.93 0.625782V4.19274C12.93 4.63079 12.75 4.81852 12.33 4.81852C11.52 4.81852 10.71 4.81852 9.9 4.84981C9.09 4.84981 8.67 5.25657 8.67 6.13267C8.64 7.07134 8.67 7.97872 8.67 8.94869H12.15C12.63 8.94869 12.81 9.13642 12.81 9.63705V13.423C12.81 13.9237 12.66 14.0801 12.15 14.0801C11.07 14.0801 8.76 14.0801 8.67 14.0801V24.2803C8.67 24.8123 8.52 25 7.98 25C6.72 25 5.49 25 4.23 25C3.78 25 3.6 24.8123 3.6 24.3429C3.6 21.0576 3.6 14.2053 3.6 14.1114Z" fill="black"/>
</svg>
