<svg width="309" height="568" viewBox="0 0 309 568" fill="none" xmlns="http://www.w3.org/2000/svg">
<path d="M268.965 0H39.6605C17.7152 0 0 18.5456 0 41.3757V526.666C0 549.475 17.7152 568 39.6605 568H268.965C290.871 568 308.625 549.475 308.625 526.666V41.3757C308.625 18.5456 290.871 0 268.965 0ZM97.7314 25.1276H210.934C213.794 25.1276 216.117 29.5777 216.117 35.0835C216.117 40.5892 213.794 45.06 210.934 45.06H97.7314C94.8517 45.06 92.5678 40.5892 92.5678 35.0835C92.5678 29.5777 94.8517 25.1276 97.7314 25.1276ZM154.333 527.162C140.371 527.162 129.011 515.323 129.011 500.752C129.011 486.18 140.371 474.382 154.333 474.382C168.254 474.382 179.614 486.18 179.614 500.752C179.614 515.323 168.254 527.162 154.333 527.162ZM278.915 436.732H29.7305V69.815H278.915V436.732Z" fill="black"/>
<path d="M268.965 0H39.6605C17.7152 0 0 18.5456 0 41.3757V526.666C0 549.475 17.7152 568 39.6605 568H268.965C290.871 568 308.625 549.475 308.625 526.666V41.3757C308.625 18.5456 290.871 0 268.965 0ZM97.7314 25.1276H210.934C213.794 25.1276 216.117 29.5777 216.117 35.0835C216.117 40.5892 213.794 45.06 210.934 45.06H97.7314C94.8517 45.06 92.5678 40.5892 92.5678 35.0835C92.5678 29.5777 94.8517 25.1276 97.7314 25.1276ZM154.333 527.162C140.371 527.162 129.011 515.323 129.011 500.752C129.011 486.18 140.371 474.382 154.333 474.382C168.254 474.382 179.614 486.18 179.614 500.752C179.614 515.323 168.254 527.162 154.333 527.162ZM278.915 436.732H29.7305V69.815H278.915V436.732Z" fill="url(#paint0_linear_363_394)"/>
<defs>
<linearGradient id="paint0_linear_363_394" x1="-7.88785e-05" y1="284.002" x2="308.625" y2="284.002" gradientUnits="userSpaceOnUse">
<stop stop-color="#9D3ADF"/>
<stop offset="0.20605" stop-color="#8542D8"/>
<stop offset="0.63851" stop-color="#4857C6"/>
<stop offset="1" stop-color="#106AB6"/>
</linearGradient>
</defs>
</svg>
